<mxfile host="app.diagrams.net" modified="2023-04-20T10:32:40.181Z" agent="Mozilla/5.0 (Windows NT 10.0; Win64; x64) AppleWebKit/537.36 (KHTML, like Gecko) Chrome/112.0.0.0 Safari/537.36 Edg/112.0.1722.48" version="21.2.1" etag="l0-0sOv6oZ_oAT2VP9yO" type="github">
  <diagram name="Page-1" id="tgUOiR3Hos9rOQxks_3F">
    <mxGraphModel>
      <root>
        <mxCell id="0" />
        <mxCell id="1" parent="0" />
      </root>
    </mxGraphModel>
  </diagram>
</mxfile>
